<?xml version="1.0" encoding="UTF-8"?>
<!DOCTYPE svg PUBLIC "-//W3C//DTD SVG 1.1//EN" "http://www.w3.org/Graphics/SVG/1.1/DTD/svg11.dtd">
<!-- Creator: CorelDRAW 2019 (64-Bit) -->
<svg xmlns="http://www.w3.org/2000/svg" xml:space="preserve" width="1083.73mm" height="270.933mm" version="1.1" style="shape-rendering:geometricPrecision; text-rendering:geometricPrecision; image-rendering:optimizeQuality; fill-rule:evenodd; clip-rule:evenodd"
viewBox="0 0 108373.32 27093.32"
 xmlns:xlink="http://www.w3.org/1999/xlink">
 <defs>
  <style type="text/css">
   <![CDATA[
    .fil2 {fill:#0EADFD}
    .fil3 {fill:#26CC7F}
    .fil5 {fill:#212529}
    .fil4 {fill:#A80DF0}
    .fil0 {fill:#DC3545}
    .fil1 {fill:#FFD607}
    .fil6 {fill:#212529;fill-rule:nonzero}
   ]]>
  </style>
 </defs>
 <g id="Warstwa_x0020_1">
  <metadata id="CorelCorpID_0Corel-Layer"/>
  <path class="fil0" d="M12559.49 10752.98l-4058.59 -7029.67c-167.47,-290.08 -425.36,-474.07 -754.14,-538.05 -328.76,-63.99 -636.84,9.82 -900.87,215.89 -2386.74,1862.8 -4045.69,4614.76 -4478.92,7757.89 -45.67,331.38 44.82,634.45 264.61,886.63 219.79,252.19 507.73,383.19 842.25,383.19l8118.09 0c410.25,0 762.45,-203.35 967.57,-558.63 205.12,-355.27 205.12,-761.97 0,-1117.25z"/>
  <path class="fil1" d="M10556.16 2534.19l4059.92 7031.99c205.11,355.28 557.32,558.62 967.56,558.62 410.25,0 762.45,-203.34 967.57,-558.62l4059.92 -7031.98c167.35,-289.86 197.82,-604.94 89.11,-921.5 -108.7,-316.55 -326.29,-546.45 -636.4,-672.34 -1383.1,-561.52 -2895.54,-870.81 -4480.2,-870.81 -1584.66,0 -3097.09,309.3 -4480.18,870.81 -310.12,125.89 -527.71,355.78 -636.41,672.34 -108.71,316.55 -78.24,631.63 89.11,921.49z"/>
  <path class="fil2" d="M22666.38 3723.3l-4058.59 7029.66c-205.12,355.28 -205.12,761.98 0,1117.26 205.12,355.27 557.33,558.62 967.57,558.62l8118.07 0c334.52,0 622.46,-131 842.26,-383.19 219.77,-252.16 310.27,-555.27 264.6,-886.63 -433.23,-3143.13 -2092.17,-5895.08 -4478.9,-7757.88 -264.04,-206.07 -572.11,-279.87 -900.87,-215.89 -328.78,63.98 -586.67,247.98 -754.14,538.05z"/>
  <path class="fil3" d="M27693.49 14803.61l-8118.14 0c-410.24,0 -762.44,203.35 -967.57,558.62 -205.12,355.28 -205.12,761.98 0,1117.25l4058.6 7029.71c167.48,290.06 425.37,474.06 754.14,538.05 328.75,63.98 636.84,-9.84 900.87,-215.91 2386.74,-1862.81 4045.7,-4614.77 4478.9,-7757.93 45.67,-331.37 -44.78,-634.48 -264.57,-886.65 -219.8,-252.16 -507.72,-383.14 -842.23,-383.14z"/>
  <path class="fil4" d="M20611.13 24698.23l-4059.92 -7032c-205.12,-355.27 -557.32,-558.62 -967.57,-558.62 -410.24,0 -762.45,203.35 -967.56,558.62l-4059.93 7032.01c-167.35,289.86 -197.82,604.94 -89.11,921.5 108.7,316.55 326.3,546.44 636.41,672.33 1383.1,561.51 2895.53,870.81 4480.19,870.81 1584.66,0 3097.1,-309.29 4480.21,-870.81 310.12,-125.9 527.69,-355.78 636.4,-672.34 108.71,-316.56 78.24,-631.64 -89.12,-921.5z"/>
  <path class="fil5" d="M8541.5 23574.61l4058.6 -7029.68c205.12,-355.28 205.12,-761.98 0,-1117.25 -205.13,-355.28 -557.33,-558.63 -967.58,-558.63l-8118.08 0c-334.52,0 -622.46,131 -842.26,383.18 -219.77,252.17 -310.27,555.28 -264.6,886.64 433.22,3143.14 2092.17,5895.1 4478.91,7757.9 264.03,206.07 572.11,279.87 900.87,215.89 328.78,-63.98 586.67,-247.99 754.14,-538.05z"/>
  <path class="fil6" d="M42511.26 7578.42c1358.19,0 2741.08,296.34 3852.33,1061.86l1012.47 -2617.61c-1284.11,-839.61 -3062.11,-1259.41 -5012.97,-1259.41 -4716.64,0 -7556.5,2518.83 -7556.5,6716.89l0 10816.16 3210.28 0 0 -6618.11 7531.8 0 0 -2716.39 -7531.8 0 0 -1481.66c0,-2543.53 1506.36,-3901.73 4494.39,-3901.73zm16273.64 1531.06l0 1605.14c-1061.86,-1185.34 -2543.53,-1753.31 -4222.75,-1753.31 -3852.34,0 -6667.5,2642.31 -6667.5,6741.58 0,4099.28 2815.16,6766.28 6667.5,6766.28 1802.69,0 3333.75,-617.36 4370.91,-1876.78l0 1703.92 2938.64 0 0 -13186.83 -3086.8 0zm-3877.03 10717.39c-2222.5,0 -3901.72,-1605.14 -3901.72,-4123.98 0,-2518.83 1679.22,-4123.97 3901.72,-4123.97 2247.19,0 3926.42,1605.14 3926.42,4123.97 0,2518.84 -1679.23,4123.98 -3926.42,4123.98zm17063.86 2642.3c2568.22,0 4617.86,-1111.25 5630.33,-3086.8l-2370.66 -1382.89c-790.22,1259.41 -1975.56,1827.39 -3284.36,1827.39 -2271.89,0 -4000.5,-1555.75 -4000.5,-4123.98 0,-2543.52 1728.61,-4123.97 4000.5,-4123.97 1308.8,0 2494.14,567.98 3284.36,1827.39l2370.66 -1382.89c-1012.47,-2000.25 -3062.11,-3062.11 -5630.33,-3062.11 -4173.36,0 -7136.69,2790.47 -7136.69,6741.58 0,3951.11 2963.33,6766.28 7136.69,6766.28zm14372.16 -2617.61c-1926.16,0 -3358.44,-814.92 -4000.5,-2321.28l10100.03 -1975.55c-24.7,-4123.97 -2988.03,-6593.42 -6667.5,-6593.42 -3926.42,0 -6790.97,2815.17 -6790.97,6741.58 0,3926.42 2864.55,6766.28 7284.86,6766.28 2271.89,0 4123.97,-740.83 5284.61,-2148.42l-1629.83 -1901.47c-963.09,963.09 -2099.03,1432.28 -3580.7,1432.28zm-567.97 -8420.8c1852.08,0 3234.97,1086.55 3654.78,2691.69l-7457.72 1432.28 0 -24.7c0,-2518.83 1555.75,-4099.27 3802.94,-4099.27zm13705.42 11038.41c3704.16,0 5976.05,-1605.14 5976.05,-4074.58 0,-5161.14 -8149.16,-2794.59 -8149.16,-5457.47 0,-864.31 889,-1481.67 2765.77,-1481.67 1259.42,0 2518.84,246.95 3778.25,987.78l1185.34 -2345.97c-1185.34,-716.14 -3185.59,-1135.95 -4938.89,-1135.95 -3556,0 -5803.2,1629.84 -5803.2,4123.97 0,5259.92 8149.17,2885.14 8149.17,5408.09 0,913.69 -814.92,1456.97 -2765.78,1456.97 -1654.53,0 -3432.52,-543.28 -4593.16,-1308.81l-1185.34 2345.97c1185.34,839.62 3383.14,1481.67 5580.95,1481.67z"/>
 </g>
</svg>
